<svg version="1.1" xmlns="http://www.w3.org/2000/svg" xmlns:xlink="http://www.w3.org/1999/xlink" width="26.36787" height="30.63957" viewBox="0,0,26.36787,30.63957"><g transform="translate(-226.81607,-164.68022)"><g data-paper-data="{&quot;isPaintingLayer&quot;:true}" fill-rule="nonzero" stroke="none" stroke-width="0" stroke-linecap="butt" stroke-linejoin="miter" stroke-miterlimit="10" stroke-dasharray="" stroke-dashoffset="0" style="mix-blend-mode: normal"><g><path d="M239.46271,169.55117c4.34723,0 7.87135,3.5981 7.87135,8.03658c0,1.54362 -0.58398,3.47224 -1.32286,4.69657c-0.37179,0.61606 -2.09472,-4.85437 -4.96607,-2.38724c-2.81217,2.41628 1.82832,5.0616 1.04097,5.40592c-0.95043,0.41564 -1.524,0.32134 -2.6234,0.32134c-4.34723,0 -7.87135,-3.5981 -7.87135,-8.03658c0,-4.43849 3.52412,-8.03658 7.87135,-8.03658z" fill="#0077ff"/><path d="M239.46271,164.68022c6.98454,0 12.64663,5.78094 12.64663,12.91211c0,7.13116 -5.66208,12.91212 -12.64663,12.91212c-6.98454,0 -12.64664,-5.78095 -12.64664,-12.91212c0,-7.13116 5.66209,-12.91211 12.64664,-12.91211zM239.51518,187.26634c5.21668,0 9.44562,-4.34923 9.44562,-9.71429c0,-5.36506 -4.22894,-9.71429 -9.44562,-9.71429c-5.21668,0 -9.44562,4.34923 -9.44562,9.71429c0,5.36506 4.22894,9.71429 9.44562,9.71429z" fill="#ffffff"/><path d="M249.71746,194.71221c-0.85603,-1.04039 -3.04982,-3.7066 -5.55448,-6.75063c1.20073,-0.57505 2.28415,-1.36566 3.20326,-2.32346c2.5508,3.1001 4.76565,5.79192 5.5721,6.77202c0.63016,0.76586 -0.0924,2.08441 -0.60043,2.52655c-0.48439,0.42156 -1.88057,0.67471 -2.62044,-0.22449z" fill="#ffffff"/></g></g></g></svg>