<svg version="1.1" xmlns="http://www.w3.org/2000/svg" xmlns:xlink="http://www.w3.org/1999/xlink" width="125.66337" height="39.88168" viewBox="0,0,125.66337,39.88168"><g transform="translate(-177.21833,-158.76163)"><g data-paper-data="{&quot;isPaintingLayer&quot;:true}" fill-rule="nonzero" stroke-linejoin="miter" stroke-miterlimit="10" stroke-dasharray="" stroke-dashoffset="0" style="mix-blend-mode: normal"><path d="M191.65583,165.01831c7.14518,0 12.9375,5.93223 12.9375,13.25c0,7.31777 -5.79232,13.25 -12.9375,13.25c-7.14518,0 -12.9375,-5.93223 -12.9375,-13.25c0,-7.31777 5.79232,-13.25 12.9375,-13.25z" fill="none" stroke="#ffffff" stroke-width="3" stroke-linecap="butt"/><path d="M182.43679,178.26832c0,-5.17917 4.09952,-9.37772 9.15654,-9.37772c5.05702,0 9.15654,4.19855 9.15654,9.37772c0,2.47056 -0.99533,4.09298 -2.51995,5.76798c-0.19492,0.21415 -2.41658,-2.94354 -3.17163,-3.60837c-0.62266,-0.54826 -2.17268,-1.60169 -3.55492,-0.31389c-1.39386,1.29863 -0.49867,2.81648 -0.08962,3.3706c1.39594,1.891 3.04606,3.52055 2.32773,3.69844c-0.69254,0.17151 -1.40416,0.46295 -2.14816,0.46295c-5.05702,0 -9.15654,-4.19855 -9.15654,-9.37772z" fill="#0077ff" stroke="none" stroke-width="0" stroke-linecap="butt"/><path d="M193.34333,181.89331l11.25,15.25" fill="none" stroke="#ffffff" stroke-width="3" stroke-linecap="round"/><text transform="translate(209.80718,185.53705) scale(0.63001,0.63001)" font-size="40" xml:space="preserve" fill="#ffffff" fill-rule="nonzero" stroke="#ffffff" stroke-width="1" stroke-linecap="butt" stroke-linejoin="miter" stroke-miterlimit="10" stroke-dasharray="" stroke-dashoffset="0" font-family="&quot;Microsoft YaHei&quot;, &quot;微软雅黑&quot;, STXihei, &quot;华文细黑&quot;" font-weight="normal" text-anchor="start" style="mix-blend-mode: normal"><tspan x="0" dy="0">SCANIT</tspan></text><path d="M212.344,195.30581h86.40098" fill="none" stroke="#ffffff" stroke-width="5" stroke-linecap="round"/></g></g></svg>