<svg version="1.1" xmlns="http://www.w3.org/2000/svg" xmlns:xlink="http://www.w3.org/1999/xlink" width="88.48273" height="75.59488" viewBox="0,0,88.48273,75.59488"><g transform="translate(-199.44445,-147.36923)"><g data-paper-data="{&quot;isPaintingLayer&quot;:true}" fill-rule="nonzero" stroke-linecap="butt" stroke-linejoin="miter" stroke-miterlimit="10" stroke-dasharray="" stroke-dashoffset="0" style="mix-blend-mode: normal"><g fill="#0077ff" stroke="none" stroke-width="0"><path d="M230.94445,207.39269c17.39697,0 31.5,3.48578 31.5,7.78571c0,4.29993 -14.10303,7.78571 -31.5,7.78571c-17.39697,0 -31.5,-3.48578 -31.5,-7.78571c0,-4.29993 14.10303,-7.78571 31.5,-7.78571z"/><path d="M265.30159,203.96412c4.49718,0 8.14286,1.05533 8.14286,2.35714c0,1.30181 -3.64568,2.35714 -8.14286,2.35714c-4.49718,0 -8.14286,-1.05533 -8.14286,-2.35714c0,-1.30181 3.64568,-2.35714 8.14286,-2.35714z"/></g><g stroke="none" stroke-width="0"><g><path d="M230.37436,192.65709l30.04323,-42.44899c0,0 3.2641,-4.89726 7.36019,-1.82745c4.56717,3.42286 0.30164,7.68458 0.30164,7.68458l-30.04323,42.44899z" fill="#533b0d"/><path d="M241.53233,186.54828c3.2611,2.04336 4.92079,11.04078 0.18484,18.04229c-2.49104,3.68269 -8.04824,2.52118 -11.74551,4.87753c-4.46399,2.845 -6.97013,8.79652 -7.93391,8.19262c-1.85296,-1.16104 -6.08074,-14.66074 -1.43697,-22.88094c4.3878,-7.76709 17.50774,-10.37682 20.93156,-8.2315z" fill="#1f1f1f"/><path d="M236.37207,192.05521c0,-1.25371 1.85591,-2.27004 4.14529,-2.27004c2.28938,0 2.96092,1.8059 2.96092,3.05962c0,1.25371 -0.67154,5.03357 -2.96092,5.03357c-2.28938,0 -4.14529,-4.56944 -4.14529,-5.82315z" fill-opacity="0.62853" fill="#0077ff"/></g><path d="M241.71717,204.59057c-2.49104,3.68269 -8.04824,2.52118 -11.74551,4.87753c-4.46399,2.845 -6.97013,8.79652 -7.93391,8.19262c-1.7583,-1.10172 -5.65498,-13.31365 -2.08071,-21.58215c0.95123,0.59595 7.42477,-2.55892 12.58526,-1.12269c4.71497,1.31225 8.07292,7.23979 10.4276,7.44348c-0.35465,0.74479 -0.77054,1.47834 -1.25273,2.19119z" fill-opacity="0.62853" fill="#0077ff"/></g><text transform="translate(259.61232,206.31411) scale(0.32403,0.43359)" font-size="128" xml:space="preserve" fill="#0077ff" fill-rule="nonzero" stroke="#0077ff" stroke-width="2" stroke-linecap="butt" stroke-linejoin="miter" stroke-miterlimit="10" stroke-dasharray="" stroke-dashoffset="0" font-family="&quot;Helvetica Neue&quot;, Helvetica, Arial, sans-serif" font-weight="400" text-anchor="start" style="mix-blend-mode: normal"><tspan x="0" dy="0">P</tspan></text></g></g></svg>